<svg xmlns="http://www.w3.org/2000/svg" width="60" height="60"><title>blinky</title><path d="M3.537 57.777C2.335 56.06 1.985 52.82 2 43.527c.036-21.778 2.19-29.87 9.778-36.725C16.96 2.12 21.848.53 31.025.542c6.373.007 8.456.47 13.422 2.983 11.1 5.62 13.563 12.026 14.227 37.028.375 14.076.27 15.17-1.606 16.868-2.626 2.38-5.538 1.6-10.773-2.882C44.022 52.592 41.763 51 41.275 51c-.49 0-2.646 1.8-4.794 4-2.147 2.2-4.664 4-5.592 4-.93 0-3.867-1.8-6.53-4-5.382-4.448-6.508-4.757-8.504-2.333C14.174 54.707 6.98 60 5.887 60c-.436 0-1.493-1-2.35-2.223zm28.76-24.894c1.2-.614 2.9-2.016 3.774-3.114 1.578-1.98 1.616-1.976 4.166.574 3.54 3.54 7.202 4.285 11.35 2.306 4-1.906 4.677-5.328 1.156-5.83-2.47-.353-3.683-3.59-1.583-4.227 4.843-1.468 4.923-1.538 3.904-3.44-1.366-2.553-6.47-4.523-9.648-3.726-1.433.36-3.733 1.782-5.112 3.16l-2.506 2.506-2.322-2.506c-4.55-4.91-12.116-4.152-15.04 1.504-1.776 3.436-1.79 5.675-.058 8.8 2.447 4.416 7.673 6.166 11.92 3.994zm-.936-7.335c-.774-2.02.38-3.548 2.68-3.548 1.404 0 1.94.692 1.94 2.5 0 1.846-.53 2.5-2.03 2.5-1.117 0-2.282-.653-2.59-1.452z" fill="#00f"><title>Blinky</title></path><path d="M57.03 24.588a10 9.643 0 1 1-20 0 10 9.643 0 1 1 20 0z" fill="#fff"/><path d="M38.816 24.357a10 9.643 0 1 1-20 0 10 9.643 0 1 1 20 0z" fill="#fff"/><path d="M-171.43 90.714c.54.036.218.742-.058.893-.75.41-1.552-.305-1.726-1.012-.312-1.263.767-2.388 1.964-2.56 1.756-.25 3.24 1.233 3.393 2.917.205 2.245-1.698 4.096-3.87 4.227-2.73.162-4.955-2.167-5.06-4.824-.125-3.218 2.63-5.817 5.775-5.893 3.705-.09 6.68 3.096 6.726 6.726.054 4.19-3.56 7.542-7.678 7.56-4.678.02-8.407-4.03-8.393-8.63.015-5.166 4.493-9.273 9.583-9.228 5.65.05 10.135 4.96 10.06 10.536" transform="matrix(.84223 0 0 .88263 172.762 -54.578)" fill="none" stroke="#000"/><path d="M-171.43 90.714c.54.036.218.742-.058.893-.75.41-1.552-.305-1.726-1.012-.312-1.263.767-2.388 1.964-2.56 1.756-.25 3.24 1.233 3.393 2.917.205 2.245-1.698 4.096-3.87 4.227-2.73.162-4.955-2.167-5.06-4.824-.125-3.218 2.63-5.817 5.775-5.893 3.705-.09 6.68 3.096 6.726 6.726.054 4.19-3.56 7.542-7.678 7.56-4.678.02-8.407-4.03-8.393-8.63.015-5.166 4.493-9.273 9.583-9.228 5.65.05 10.135 4.96 10.06 10.536" transform="matrix(.84223 0 0 .88263 190.783 -54.728)" fill="none" stroke="#000"/></svg>