<svg xmlns="http://www.w3.org/2000/svg" viewBox="0 0 2450 2563" shape-rendering="geometricPrecision" text-rendering="geometricPrecision" image-rendering="optimizeQuality" fill-rule="evenodd" clip-rule="evenodd"><defs><style><![CDATA[@font-face { font-family:"Geometr415 Blk BT";src:url("#FontID0") format(svg)}.fil7 {fill:#FEFEFE}.fil1 {fill:#16C1CF;fill-rule:nonzero}.fil0 {fill:#1AE2EF;fill-rule:nonzero}.fil4 {fill:#4F0523;fill-rule:nonzero}.fil3 {fill:#D40C5E;fill-rule:nonzero}.fil2 {fill:white;fill-rule:nonzero}.fil6 {fill:#085256;fill-rule:nonzero;fill-opacity:0.400000}.fil5 {fill:#16BFCC;fill-rule:nonzero;fill-opacity:0.400000}.fnt0 {font-weight:normal;font-size:724.039px;font-family:'Geometr415 Blk BT'}]]></style></defs><g id="Layer_x0020_1"><g id="_1954665153200"><path class="fil0" d="M1928 2169V1100c0-389-315-704-703-704s-703 315-703 704v1069c-49 0-88 39-88 88v218c0 48 39 88 88 88 48 0 88-40 88-88v-83c0-49 39-88 88-88 48 0 87 39 87 88v83c0 48 40 88 88 88 49 0 88-40 88-88v-83c0-49 40-88 88-88 49 0 88 39 88 88v83c0 48 39 88 88 88s88-40 88-88v-83c0-49 39-88 88-88 48 0 88 39 88 88v83c0 48 39 88 88 88 48 0 88-40 88-88v-83c0-49 39-88 87-88 49 0 88 39 88 88v83c0 48 40 88 88 88 49 0 88-40 88-88v-218c0-49-39-88-88-88z"/><path class="fil1" d="M1692 1066c0 258-209 467-467 467s-467-209-467-467 209-467 467-467 467 209 467 467z"/><path class="fil2" d="M1616 1066c0 216-175 391-391 391s-391-175-391-391 175-391 391-391 391 175 391 391z"/><path class="fil3" d="M1478 1066c0 140-113 253-253 253s-253-113-253-253 113-253 253-253 253 113 253 253z"/><path class="fil4" d="M1357 1066c0 73-59 132-132 132s-132-59-132-132 59-132 132-132 132 59 132 132z"/><path class="fil2" d="M1509 918c0 68-56 124-125 124s-125-56-125-124c0-69 56-125 125-125s125 56 125 125z"/><path class="fil0" d="M1222 426h-1c-22-1-38-19-38-40 1-8 9-183 146-284 99-73 238-86 413-38 21 6 33 28 27 48-6 21-27 34-48 28-150-42-267-33-346 25-107 79-113 222-113 224-1 21-19 37-40 37z"/><path class="fil1" d="M1837 107c0 58-47 106-106 106-58 0-106-48-106-106 0-59 48-107 106-107 59 0 106 48 106 107zM1400 364c0 29-24 53-53 53h-244c-29 0-53-24-53-53s24-53 53-53h244c29 0 53 24 53 53z"/><path class="fil5" d="M1928 1217c-107 0-194 87-194 195 0 107 87 194 194 194v-389zM522 1951c68 0 124-56 124-124 0-69-56-125-124-125v249zM777 1436c0 40-33 73-73 73s-73-33-73-73 33-73 73-73 73 33 73 73zM563 862c152-11 271-137 271-291 0-18-1-36-5-53-121 83-215 203-266 344zM1889 1853c0 32-26 58-59 58-32 0-58-26-58-58 0-33 26-59 58-59 33 0 59 26 59 59zM1816 719c-52-81-121-151-201-205-17 24-27 53-27 85 0 80 65 145 146 145 30 0 59-9 82-25z"/><path class="fil6" d="M1168 1652c0 22-14 40-32 40-17 0-31-18-31-40 0-23 14-41 31-41 18 0 32 18 32 41zM1345 1652c0 22-14 40-31 40-18 0-32-18-32-40 0-23 14-41 32-41 17 0 31 18 31 41z"/><path class="fil0" d="M630 1058s-20 29-188 29c-117 0-295-170-341-79-39 76 83 286 191 200 119-95 295-71 338-57v-93z"/><path class="fil6" d="M223 1078c30 49 38 99 16 112-21 14-63-15-94-64-30-48-37-99-16-112 22-13 64 15 94 64z"/><path class="fil0" d="M1820 1058s20 29 188 29c117 0 295-170 341-79 39 76-83 286-191 200-119-95-295-71-338-57v-93z"/><path class="fil6" d="M2227 1078c-30 49-38 99-16 112 21 14 63-15 94-64 30-48 37-99 16-112-22-13-64 15-94 64z"/><text x="606" y="2136" class="fil7 fnt0">500</text></g></g></svg>