<svg xmlns="http://www.w3.org/2000/svg" viewBox="0 0 2450 2563" shape-rendering="geometricPrecision" text-rendering="geometricPrecision" image-rendering="optimizeQuality" fill-rule="evenodd" clip-rule="evenodd"><defs><style><![CDATA[@font-face { font-family:"Geometr415 Blk BT";src:url("#FontID0") format(svg)}.fil7 {fill:#FEFEFE}.fil1 {fill:#00487D;fill-rule:nonzero}.fil0 {fill:#0079CC;fill-rule:nonzero}.fil5 {fill:#078AE3;fill-rule:nonzero}.fil4 {fill:#3B0A6E;fill-rule:nonzero}.fil3 {fill:#896CA8;fill-rule:nonzero}.fil2 {fill:white;fill-rule:nonzero}.fil6 {fill:#085256;fill-rule:nonzero;fill-opacity:0.400000}.fnt0 {font-weight:normal;font-size:724.291px;font-family:'Geometr415 Blk BT'}]]></style></defs><g id="Layer_x0020_1"><g id="_1954549022448"><path class="fil0" d="M1929 2169V1100c0-389-315-704-704-704s-704 315-704 704v1069c-48 0-88 40-88 88v218c0 49 40 88 88 88 49 0 88-39 88-88v-83c0-49 40-88 88-88 49 0 88 39 88 88v83c0 49 40 88 88 88 49 0 88-39 88-88v-83c0-49 40-88 88-88 49 0 88 39 88 88v83c0 49 39 88 88 88s88-39 88-88v-83c0-49 39-88 88-88 48 0 88 39 88 88v83c0 49 39 88 88 88 48 0 88-39 88-88v-83c0-49 39-88 88-88 48 0 88 39 88 88v83c0 49 39 88 88 88 48 0 88-39 88-88v-218c0-48-40-88-88-88z"/><path class="fil0" d="M1222 426h-1c-22-1-38-19-38-41 1-7 9-183 146-283 99-73 238-86 413-38 21 6 33 27 27 48s-27 33-48 27c-150-41-267-32-346 26-107 78-113 222-113 223-1 21-19 38-40 38zM630 1058s-20 29-188 29c-117 0-296-170-342-79-38 76 83 286 191 200 120-95 296-71 339-57v-93zM1820 1058s20 29 188 29c117 0 296-170 342-79 38 76-83 286-191 200-120-95-296-71-339-57v-93z"/><path class="fil1" d="M1693 1066c0 258-210 467-468 467s-468-209-468-467 210-468 468-468 468 210 468 468zM1838 106c0 59-48 106-107 106-58 0-106-47-106-106 0-58 48-106 106-106 59 0 107 48 107 106zM1400 364c0 29-24 53-53 53h-244c-29 0-53-24-53-53 0-30 24-54 53-54h244c29 0 53 24 53 54zM223 1078c30 49 37 99 16 112-22 14-64-15-94-64-30-48-38-99-16-112 21-13 63 15 94 64zM2227 1078c-30 49-37 99-16 112 22 14 64-15 94-64 30-48 37-99 16-112s-63 15-94 64z"/><path class="fil2" d="M1616 1066c0 216-175 391-391 391s-391-175-391-391 175-391 391-391 391 175 391 391z"/><path class="fil3" d="M1478 1066c0 139-113 253-253 253s-253-114-253-253c0-140 113-253 253-253s253 113 253 253z"/><path class="fil4" d="M1357 1066c0 73-59 132-132 132s-132-59-132-132 59-132 132-132 132 59 132 132z"/><path class="fil2" d="M1509 917c0 69-56 125-125 125s-125-56-125-125 56-124 125-124 125 55 125 124z"/><path class="fil5" d="M1929 1217c-108 0-195 87-195 195 0 107 87 194 195 194v-389zM521 1951c69 0 125-55 125-124s-56-124-125-124v248zM776 1436c0 40-32 73-72 73-41 0-73-33-73-73s32-73 73-73c40 0 72 33 72 73zM563 862c151-11 271-137 271-291 0-18-2-36-5-53-121 83-216 203-266 344zM1889 1853c0 32-26 58-58 58-33 0-59-26-59-58s26-59 59-59c32 0 58 27 58 59zM1816 718c-52-81-121-150-201-204-17 24-27 53-27 84 0 81 65 146 146 146 30 0 59-9 82-26z"/><path class="fil6" d="M1168 1652c0 22-14 40-32 40-17 0-31-18-31-40 0-23 14-41 31-41 18 0 32 18 32 41zM1345 1652c0 22-14 40-31 40-18 0-32-18-32-40 0-23 14-41 32-41 17 0 31 18 31 41z"/><g><text x="1225" y="1282" class="fil7 fnt0" transform="matrix(1 0 0 1 -619.155 854.314)">500</text></g></g></g></svg>