<svg xmlns="http://www.w3.org/2000/svg" width="60" height="60"><title>Clyde</title><g transform="translate(-450.448 -573.005)"><title>Blinky</title><path d="M453.985 630.783c-1.202-1.717-1.552-4.96-1.537-14.25.036-21.78 2.19-29.87 9.777-36.725 5.184-4.683 10.07-6.273 19.248-6.262 6.373.008 8.456.47 13.422 2.984 11.1 5.62 13.563 12.026 14.227 37.028.374 14.076.27 15.17-1.606 16.868-2.626 2.377-5.538 1.597-10.773-2.884-2.273-1.945-4.532-3.537-5.02-3.537-.49 0-2.646 1.8-4.794 4-2.15 2.2-4.668 4-5.596 4-.93 0-3.867-1.8-6.53-4-5.382-4.448-6.508-4.757-8.504-2.333-1.68 2.04-8.872 7.333-9.965 7.333-.436 0-1.494-1-2.35-2.222zm28.76-24.895c1.2-.614 2.9-2.016 3.774-3.114 1.574-1.98 1.61-1.974 4.162.576 3.54 3.54 7.202 4.285 11.35 2.306 4-1.907 4.677-5.33 1.156-5.83-2.472-.354-3.685-3.592-1.585-4.228 4.844-1.467 4.924-1.538 3.905-3.44-1.366-2.553-6.47-4.523-9.648-3.726-1.433.36-3.733 1.782-5.112 3.16l-2.506 2.506-2.322-2.506c-4.55-4.91-12.116-4.152-15.04 1.504-1.776 3.434-1.79 5.673-.058 8.8 2.447 4.414 7.672 6.164 11.92 3.992zm-.936-7.335c-.778-2.02.375-3.548 2.677-3.548 1.403 0 1.94.692 1.94 2.5 0 1.846-.53 2.5-2.03 2.5-1.118 0-2.283-.653-2.59-1.452z" fill="#f95"><title>Blinky</title></path><path d="M507.478 597.593c0 5.326-4.477 9.643-10 9.643s-10-4.317-10-9.643c0-5.326 4.477-9.643 10-9.643s10 4.317 10 9.643z" fill="#fff"/><path d="M489.264 597.362c0 5.326-4.477 9.643-10 9.643s-10-4.317-10-9.643c0-5.325 4.477-9.643 10-9.643s10 4.316 10 9.64z" fill="#fff"/><path d="M488.434 597.34a5 5 0 1 1-10 0 5 5 0 0 1 10 0zm18.99-.304a5 5 0 1 1-10 0 5 5 0 0 1 10 0z" fill="#00f"/></g></svg>