<svg xmlns="http://www.w3.org/2000/svg" viewBox="0 0 2563 2563" shape-rendering="geometricPrecision" text-rendering="geometricPrecision" image-rendering="optimizeQuality" fill-rule="evenodd" clip-rule="evenodd"><defs><style><![CDATA[.fil2 {fill:none}.fil0 {fill:#FFED59}.fil6 {fill:#3B0A6E;fill-rule:nonzero}.fil5 {fill:#8143C4;fill-rule:nonzero}.fil7 {fill:#DECF2A;fill-rule:nonzero}.fil3 {fill:#EDDD38;fill-rule:nonzero}.fil4 {fill:white;fill-rule:nonzero}.fil1 {fill:#D1C306;fill-rule:nonzero;fill-opacity:0.400000}]]></style><clipPath id="id0"><path d="M1409 1320l1154 604c-116 197-288 361-496 473-632 343-1440 138-1804-457S117 584 750 242c29-16 60-31 90-45-34-27-75-50-123-65-145-45-321-5-522 119-28 18-65 10-84-16-18-26-10-62 18-79C363 12 573-33 755 24c87 27 156 75 208 125 591-200 1267 21 1591 551l-1145 620z"/></clipPath></defs><g id="Layer_x0020_1"><g id="_1954663795152"><path class="fil0" d="M1409 1320l1154 604c-116 197-288 361-496 473-632 343-1440 138-1804-457S117 584 750 242c29-16 60-31 90-45-34-27-75-50-123-65-145-45-321-5-522 119-28 18-65 10-84-16-18-26-10-62 18-79C363 12 573-33 755 24c87 27 156 75 208 125 591-200 1267 21 1591 551l-1145 620z"/><g clip-path="url(#id0)"><path id="1" class="fil1" d="M2263 264c0 147-127 266-283 266s-283-119-283-266S1824-2 1980-2s283 119 283 266z"/><path class="fil1" d="M476 1030c0 135-117 244-260 244-144 0-260-109-260-244S72 785 216 785c143 0 260 110 260 245zM736 2261c0 136-117 246-261 246s-261-110-261-246c0-135 117-245 261-245s261 110 261 245zM736 1477c0 67-58 122-130 122s-130-55-130-122c0-68 58-123 130-123s130 55 130 123zM1697 1836c0 147-127 267-283 267s-283-120-283-267 127-266 283-266 283 119 283 266zM1970 2235c0 34-29 62-65 62s-65-28-65-62 29-61 65-61 65 27 65 61zM2831 1714c0 147-127 266-283 266s-283-119-283-266 127-267 283-267 283 120 283 267zM1451 2358c0 34-29 62-65 62s-66-28-66-62 30-61 66-61 65 27 65 61z"/></g><path class="fil2" d="M1409 1320l1154 604c-116 197-288 361-496 473-632 343-1440 138-1804-457S117 584 750 242c29-16 60-31 90-45-34-27-75-50-123-65-145-45-321-5-522 119-28 18-65 10-84-16-18-26-10-62 18-79C363 12 573-33 755 24c87 27 156 75 208 125 591-200 1267 21 1591 551l-1145 620z"/><path class="fil3" d="M1630 711c0 239-206 433-460 433S710 950 710 711s206-432 460-432 460 193 460 432z"/><path class="fil4" d="M1555 711c0 200-172 362-385 362-212 0-384-162-384-362s172-362 384-362c213 0 385 162 385 362z"/><path class="fil5" d="M1419 711c0 130-111 234-249 234-137 0-248-104-248-234 0-129 111-234 248-234 138 0 249 105 249 234z"/><path class="fil6" d="M1300 711c0 68-58 122-130 122-71 0-129-54-129-122 0-67 58-122 129-122 72 0 130 55 130 122z"/><path class="fil4" d="M1449 574c0 64-55 115-122 115-68 0-123-51-123-115s55-116 123-116c67 0 122 52 122 116z"/><path class="fil7" d="M8 257c28 82 120 126 207 100 86-26 133-113 106-194C293 81 200 37 114 63S-20 176 8 257z"/></g></g></svg>